# xmcd
#
# Track frame offsets: 
#        150
#        16480
#        42502
#        74175
#
# Disc length: 1457 seconds
#
# Revision: 0
# Processed by: cddbd v1.5.2PL0 Copyright (c) Steve Scherf et al.
# Submitted via: ExactAudioCopy v0.95b4
#
DISCID=3905af04
DTITLE=D&M Project - Ride like the wind
DYEAR=1900
DGENRE=
TTITLE0=Radio edit
TTITLE1=Novaspace edit
TTITLE2=Bradski and Jenski Non-Vocal Mix
TTITLE3=D&M Extended Mix
EXTD=
EXTT0=
EXTT1=
EXTT2=
EXTT3=
PLAYORDER=
